# Generated by mfsd 0.1.0
o survey_control
v 500000 6500000 100 1 0.2 0.1
v 500010 6500005 101 1 0.6 0.1
p 1
p 2
o bench_crest
v 500020 6500010 98 0.9 0.7 0.1
v 500030 6500015 96 0.8 0.8 0.2
v 500040 6500020 95 0.7 0.9 0.3
vt 0 0
vt 0.5 0
vt 1 0
l 3/1 4/2
l 4/2 5/3
o pit_face
v 500050 6500025 90 0.5 0.3 0.1
v 500070 6500025 91 0.6 0.35 0.15
v 500050 6500045 94 0.7 0.4 0.2
vt 0 0
vt 1 0
vt 0 1
vn 0 -0.1961161351 0.9805806757
vn 0 -0.1961161351 0.9805806757
vn 0 -0.1961161351 0.9805806757
f 6/4/1 7/5/2 8/6/3
